<svg width="30" height="31" viewBox="0 0 30 31" fill="none" xmlns="http://www.w3.org/2000/svg">
<path d="M11.25 28H18.75C25 28 27.5 25.5 27.5 19.25V11.75C27.5 5.5 25 3 18.75 3H11.25C5 3 2.5 5.5 2.5 11.75V19.25C2.5 25.5 5 28 11.25 28Z" stroke="#333333" stroke-width="1.875" stroke-linecap="round" stroke-linejoin="round"/>
<path d="M15 19.875C17.4162 19.875 19.375 17.9162 19.375 15.5C19.375 13.0838 17.4162 11.125 15 11.125C12.5838 11.125 10.625 13.0838 10.625 15.5C10.625 17.9162 12.5838 19.875 15 19.875Z" stroke="#333333" stroke-width="1.875" stroke-linecap="round" stroke-linejoin="round"/>
<path d="M22.0451 9.25H22.0596" stroke="#333333" stroke-width="2.5" stroke-linecap="round" stroke-linejoin="round"/>
</svg>
