<svg width="46" height="47" viewBox="0 0 46 47" fill="none" xmlns="http://www.w3.org/2000/svg">
<rect width="46" height="47" rx="23" fill="#333333"/>
<path d="M20.2347 38.4454L25.7146 38.4294" stroke="#F8F7F5" stroke-width="1.61607" stroke-linecap="round"/>
<path d="M19.5199 35.287L26.4049 35.267" stroke="#F8F7F5" stroke-width="1.70586" stroke-linecap="round"/>
<path d="M18.5242 32.1246L27.1656 32.0994" stroke="#F8F7F5" stroke-width="1.66096" stroke-linecap="round"/>
<path d="M18.5241 32.1246L18.5147 28.8928" stroke="#F8F7F5" stroke-width="1.66096" stroke-linecap="round"/>
<path d="M27.3762 32.0285L27.3668 28.7967" stroke="#F8F7F5" stroke-width="1.66096" stroke-linecap="round"/>
<path d="M18.5147 28.8928C12.4627 25.4679 10.8998 19.5709 12.784 15.2095C14.1787 11.6223 18.3822 7.53519 24.3555 8.07981C29.9082 8.90669 34.0914 13.5154 33.8043 19.8553" stroke="#F8F7F5" stroke-width="1.66096" stroke-linecap="round"/>
<path d="M33.804 19.7851C33.3966 24.634 31.0848 26.8889 27.4368 28.7262" stroke="#F8F7F5" stroke-width="1.66096" stroke-linecap="round"/>
<path d="M21.7205 31.9137V26.4819" stroke="#F8F7F5" stroke-width="1.66096" stroke-linecap="round"/>
<path d="M21.7205 26.4819C17.5905 24.4169 15.6153 21.0052 15.9744 18.222C16.2988 15.7081 18.7128 12.6106 21.092 11.9373C24.9975 10.8319 28.6514 13.6458 29.5764 16.7855C29.9639 18.2495 30.1642 19.0667 29.9804 20.5114" stroke="#F8F7F5" stroke-width="1.66096" stroke-linecap="round"/>
<path d="M24.5037 31.9138L24.5037 25.5392" stroke="#F8F7F5" stroke-width="1.66096" stroke-linecap="round"/>
<path d="M24.5037 25.5393C23.362 24.6448 21.496 23.2498 21.496 23.2498H29.307" stroke="#F8F7F5" stroke-width="1.66096" stroke-linecap="round"/>
<path d="M16.4682 20.6013H29.9355" stroke="#F8F7F5" stroke-width="1.66096" stroke-linecap="round"/>
</svg>
